<?xml version="1.0" standalone="no"?>
<!DOCTYPE svg PUBLIC "-//W3C//DTD SVG 20010904//EN"
 "http://www.w3.org/TR/2001/REC-SVG-20010904/DTD/svg10.dtd">
<svg version="1.0" xmlns="http://www.w3.org/2000/svg"
 width="512.000000pt" height="512.000000pt" viewBox="0 0 512.000000 512.000000"
 preserveAspectRatio="xMidYMid meet">

<g transform="translate(0.000000,512.000000) scale(0.100000,-0.100000)"
fill="#000000" stroke="none">
<path d="M1444 5031 c-47 -12 -133 -62 -160 -94 -14 -17 -37 -53 -52 -81 l-27
-51 0 -2245 0 -2245 27 -51 c40 -76 70 -107 140 -145 l63 -34 1125 0 1125 0
63 34 c70 38 100 69 140 145 l27 51 0 2245 0 2245 -34 63 c-38 70 -69 100
-145 140 l-51 27 -1105 2 c-608 0 -1119 -2 -1136 -6z m607 -288 c24 -97 41
-145 56 -160 l22 -23 424 0 c390 0 427 1 446 18 15 12 34 60 61 157 22 77 40
141 40 142 0 2 119 3 265 3 298 0 313 -3 361 -66 l29 -37 0 -2218 0 -2218 -21
-27 c-11 -15 -33 -37 -48 -48 -27 -21 -32 -21 -1125 -21 l-1098 0 -37 29 c-71
54 -66 -133 -66 2285 0 1527 3 2198 11 2218 6 15 20 39 32 52 44 47 64 50 348
51 l267 0 33 -137z m874 110 c-3 -16 -13 -52 -21 -80 l-15 -53 -333 0 -334 0
-20 80 -20 80 375 0 375 0 -7 -27z"/>
<path d="M2037 3028 c-8 -7 -93 -109 -186 -227 -128 -160 -171 -220 -171 -241
0 -21 43 -81 171 -241 93 -118 178 -220 186 -226 27 -21 72 -15 98 12 47 46
38 66 -120 264 -80 99 -145 185 -145 191 0 6 65 92 145 191 158 198 167 218
120 264 -26 27 -71 33 -98 13z"/>
<path d="M2752 3023 c-35 -31 -512 -839 -512 -868 0 -59 83 -97 128 -57 35 30
512 838 512 867 0 59 -83 97 -128 58z"/>
<path d="M2985 3015 c-47 -46 -38 -66 120 -264 80 -99 145 -185 145 -191 0 -6
-65 -92 -145 -191 -158 -198 -167 -218 -120 -264 26 -27 71 -33 98 -12 8 6 93
108 186 226 128 160 171 220 171 241 0 21 -43 81 -171 241 -93 118 -178 220
-186 227 -27 20 -72 14 -98 -13z"/>
<path d="M1545 535 c-16 -15 -25 -36 -25 -55 0 -19 9 -40 25 -55 l24 -25 311
0 311 0 24 25 c16 15 25 36 25 55 0 19 -9 40 -25 55 l-24 25 -311 0 -311 0
-24 -25z"/>
<path d="M2345 535 c-16 -15 -25 -36 -25 -55 0 -19 9 -40 25 -55 21 -22 33
-25 95 -25 62 0 74 3 95 25 16 15 25 36 25 55 0 19 -9 40 -25 55 -21 22 -33
25 -95 25 -62 0 -74 -3 -95 -25z"/>
</g>
</svg>
